<svg xmlns="http://www.w3.org/2000/svg" viewBox="0 0 229.3 33.82"><g id="Layer_2" data-name="Layer 2"><g id="Layer_1-2" data-name="Layer 1"><polygon points="57.01 16.85 74.49 15.82 74.49 12.8 50.91 12.8 50.91 7.21 75.77 7.21 75.77 0 41.53 0 41.53 17.77 57.01 16.85" style="fill:#231f20"/><path d="M89,15V7.21h13.19a15.19,15.19,0,0,1,3,.26,5.33,5.33,0,0,1,2,.8,3,3,0,0,1,1.09,1.39,5.61,5.61,0,0,1,.33,2,5.37,5.37,0,0,1-.33,2c0,.06-.07.1-.09.15l9.55-.56a16.25,16.25,0,0,0,.1-1.73,14.15,14.15,0,0,0-.73-4.66,9.08,9.08,0,0,0-2.38-3.65A11.12,11.12,0,0,0,110.53.85,20.5,20.5,0,0,0,104.18,0H79.89V15.51Z" style="fill:#231f20"/><path d="M6.39,19.86l16.87-1,9.82-.59a9.91,9.91,0,0,0,1.1-1.05,8.7,8.7,0,0,0,1.62-2.75,10.36,10.36,0,0,0,.61-3.74,12.93,12.93,0,0,0-.73-4.42,8,8,0,0,0-2.34-3.38A11,11,0,0,0,29.16.76,22.31,22.31,0,0,0,22.89,0H0V20.24ZM9.13,7.06H21.64a15.31,15.31,0,0,1,2.67.2A4.5,4.5,0,0,1,26,7.89,2.4,2.4,0,0,1,26.92,9a4.84,4.84,0,0,1,.26,1.67,4.86,4.86,0,0,1-.26,1.68,2.4,2.4,0,0,1-.9,1.12,4.67,4.67,0,0,1-1.71.62,14.39,14.39,0,0,1-2.67.2H9.13Z" style="fill:#231f20"/><path d="M124.51,12.89l5-.28V7.21h13.2a15.26,15.26,0,0,1,3,.26,5.28,5.28,0,0,1,2,.8,3.06,3.06,0,0,1,1.1,1.39,5.36,5.36,0,0,1,.31,1.84L158.4,11a13.74,13.74,0,0,0-.72-4.09,9,9,0,0,0-2.37-3.65A11.19,11.19,0,0,0,151.06.85,20.59,20.59,0,0,0,144.71,0h-24.3V13.13Z" style="fill:#231f20"/><polygon points="227.06 7.25 229.3 0 221.23 0 219.84 7.63 227.06 7.25" style="fill:#231f20"/><polygon points="217.46 7.76 217.46 0 208.37 0 208.37 8.24 217.46 7.76" style="fill:#231f20"/><polygon points="170.07 10.33 170.07 0 160.94 0 160.94 10.84 170.07 10.33" style="fill:#231f20"/><polygon points="192.02 9.1 194.31 8.97 185.53 0 175.61 0 175.61 10.02 192.02 9.1" style="fill:#231f20"/><polygon points="6.55 22.18 0 22.59 0 33.82 9.13 33.82 9.13 22.01 6.55 22.18" style="fill:#231f20"/><polygon points="160.94 12.31 160.94 33.82 170.07 33.82 170.07 11.71 160.94 12.31" style="fill:#231f20"/><polygon points="175.61 11.34 175.61 33.82 184.74 33.82 184.74 10.74 175.61 11.34" style="fill:#231f20"/><polygon points="219.71 8.33 218.96 12.41 225.46 12.41 226.88 7.83 219.71 8.33" style="fill:#231f20"/><polygon points="208.37 9.12 208.37 23.34 195.34 10.03 192.1 10.25 184.88 10.73 207.56 33.82 217.46 33.82 217.46 8.48 208.37 9.12" style="fill:#231f20"/><path d="M149,13.1a5.08,5.08,0,0,1-.16.59,2.86,2.86,0,0,1-1.1,1.31,5.11,5.11,0,0,1-2,.72,18.49,18.49,0,0,1-3,.21h-13.2V14.38l-4.9.33-4.23.27V33.82h9.13V23.14h15.17a20.57,20.57,0,0,0,6.35-.86,11.48,11.48,0,0,0,4.25-2.4,9,9,0,0,0,2.37-3.67,13.49,13.49,0,0,0,.7-3.73Z" style="fill:#231f20"/><polygon points="23.42 21.12 19.12 21.39 29.34 33.82 40.02 33.82 29.19 20.75 23.42 21.12" style="fill:#231f20"/><polygon points="50.91 20.01 74.49 20.01 74.49 17.9 57.16 19 41.53 19.98 41.53 33.82 76.12 33.82 76.12 26.61 50.91 26.61 50.91 20.01" style="fill:#231f20"/><path d="M79.89,17.55V33.82H89V23.14h15.16a20.48,20.48,0,0,0,6.35-.86,11.4,11.4,0,0,0,4.25-2.4,9.15,9.15,0,0,0,2.38-3.67c.11-.34.22-.69.31-1.05Z" style="fill:#231f20"/></g></g></svg>