<svg xmlns="http://www.w3.org/2000/svg" viewBox="0 0 259.55 33.82"><g id="Layer_2" data-name="Layer 2"><g id="Layer_1-2" data-name="Layer 1"><path d="M9.13,33.82H0V0H22.89a22.31,22.31,0,0,1,6.27.76,11,11,0,0,1,4.18,2.17,8,8,0,0,1,2.34,3.38,12.65,12.65,0,0,1,.73,4.42,10.36,10.36,0,0,1-.61,3.74,8.59,8.59,0,0,1-1.62,2.75,9.51,9.51,0,0,1-2.38,1.93A16,16,0,0,1,29,20.46L40,33.82H29.34L19.1,21.37h-10Zm18-23.14A4.84,4.84,0,0,0,26.92,9,2.28,2.28,0,0,0,26,7.89a4.5,4.5,0,0,0-1.71-.63,15.31,15.31,0,0,0-2.67-.2H9.13V14.3H21.64a14.39,14.39,0,0,0,2.67-.2A4.67,4.67,0,0,0,26,13.48a2.28,2.28,0,0,0,.9-1.12A4.86,4.86,0,0,0,27.18,10.68Z" style="fill:#231f20"/><path d="M46.57,33.82V0H80.81V7.21H56V12.8H79.53V20H56v6.6H81.16v7.21Z" style="fill:#231f20"/><path d="M128,11.54a14.2,14.2,0,0,1-.74,4.67,9,9,0,0,1-2.37,3.67,11.48,11.48,0,0,1-4.25,2.4,20.57,20.57,0,0,1-6.35.86H99.1V33.82H90V0h24.3a20.59,20.59,0,0,1,6.35.85,11.19,11.19,0,0,1,4.25,2.39,9,9,0,0,1,2.37,3.65A14.08,14.08,0,0,1,128,11.54Zm-9.23.15a5.65,5.65,0,0,0-.33-2,3.11,3.11,0,0,0-1.1-1.39,5.28,5.28,0,0,0-2-.8,15.19,15.19,0,0,0-3-.26H99.1v8.72h13.2a18.41,18.41,0,0,0,3-.21,5.11,5.11,0,0,0,2-.72,2.86,2.86,0,0,0,1.1-1.31A5.37,5.37,0,0,0,118.75,11.69Z" style="fill:#231f20"/><path d="M173.54,11.54a14,14,0,0,1-.74,4.67,9,9,0,0,1-2.37,3.67,11.4,11.4,0,0,1-4.25,2.4,20.52,20.52,0,0,1-6.35.86H144.67V33.82h-9.13V0h24.29a20.55,20.55,0,0,1,6.35.85,11.12,11.12,0,0,1,4.25,2.39,9,9,0,0,1,2.37,3.65A13.83,13.83,0,0,1,173.54,11.54Zm-9.23.15a5.65,5.65,0,0,0-.33-2,3,3,0,0,0-1.1-1.39,5.21,5.21,0,0,0-2-.8,15.19,15.19,0,0,0-3-.26H144.67v8.72h13.19a18.41,18.41,0,0,0,3-.21,5,5,0,0,0,2-.72,2.8,2.8,0,0,0,1.1-1.31A5.37,5.37,0,0,0,164.31,11.69Z" style="fill:#231f20"/><path d="M181.1,33.82V0h9.13V33.82Z" style="fill:#231f20"/><path d="M232.77,33.82,210,10.58V33.82h-9.13V0h9.92l22.84,23.34V0h9.08V33.82Z" style="fill:#231f20"/><path d="M255.71,12.41h-6.5L251.48,0h8.07Z" style="fill:#231f20"/></g></g></svg>