<svg xmlns="http://www.w3.org/2000/svg" viewBox="0 0 191.5 47.1"><g id="Layer_2" data-name="Layer 2"><g id="Layer_1-2" data-name="Layer 1"><path d="M30,14.46Q30,22.1,23,25l6.51,13.19h-5.2L18.39,26.25a33.75,33.75,0,0,1-5,.36H4.48V38.18H0V3.91H14.06q7.59,0,11.35,2.09C28.46,7.67,30,10.5,30,14.46ZM14,22.55q5.42,0,8-1.5c2.15-1.25,3.22-3.34,3.22-6.29q0-5.76-7.45-6.54A40.14,40.14,0,0,0,13.36,8H4.48V22.55Z" style="fill:#231f20"/><path d="M40.59,3.91H66.16V8H45.07v9.24h18.8v4.07H45.07V34.11H66.65v4.07H40.59Z" style="fill:#231f20"/><path d="M106.26,16.62c0,.26,0,.51,0,.77,0,.46-.06.9-.11,1.35A12.47,12.47,0,0,1,101.57,27a16,16,0,0,1-6.67,3.17V26.07a9.68,9.68,0,0,0,3.65-1.93,8.55,8.55,0,0,0,2.89-5.88,9.89,9.89,0,0,0,.08-1.35,8.6,8.6,0,0,0-.91-4.07,6.44,6.44,0,0,0-.89-1.35,7.39,7.39,0,0,0-1.54-1.4A13.67,13.67,0,0,0,90.12,8h-8.4V26.61h6v4.07h-6v7.5H77.26V3.92H90.82q6.89,0,11,3.09a10.82,10.82,0,0,1,4,6A15.1,15.1,0,0,1,106.26,16.62Z" style="fill:#231f20"/><path d="M118.08,25.54A12.79,12.79,0,0,1,113.39,36,17.43,17.43,0,0,1,102,39.61H93.55V47.1H89.07V12.84H99a7,7,0,0,1,1.13,4.07H93.55V35.54h9a11.53,11.53,0,0,0,7.79-2.46,9,9,0,0,0,3-7.24A7.86,7.86,0,0,0,110,19a9.56,9.56,0,0,0-2.43-1.23c0-.38,0-.76,0-1.16a15.18,15.18,0,0,0-.35-3.38,15.33,15.33,0,0,1,6.37,2.7C116.61,18.17,118.08,21.38,118.08,25.54Z" style="fill:#231f20"/><path d="M128.69,3.91h4.48V38.18h-4.48Z" style="fill:#231f20"/><path d="M143.78,3.91h3.91L169.76,31V3.91h4V38.18H170L147.77,10.93V38.18h-4Z" style="fill:#231f20"/><path d="M186.76,4.89a2.51,2.51,0,0,1-1.26-2.18A2.5,2.5,0,0,1,187.36.19,3.4,3.4,0,0,1,188.52,0a3,3,0,0,1,1.19.24,2.66,2.66,0,0,1,.94.66,2.68,2.68,0,0,1,.85,1.92,7.13,7.13,0,0,1-.25,1.95,12.92,12.92,0,0,1-.67,1.81,18.38,18.38,0,0,1-.93,1.82A19.42,19.42,0,0,1,188.57,10a14.27,14.27,0,0,1-2,2.37l-2.21-1.23a14.29,14.29,0,0,0,2.08-4.67A7.55,7.55,0,0,0,186.76,4.89Z" style="fill:#231f20"/></g></g></svg>