<svg xmlns="http://www.w3.org/2000/svg" viewBox="0 0 202.13 37.65"><g id="Layer_2" data-name="Layer 2"><g id="Layer_1-2" data-name="Layer 1"><path d="M23.37,37.57,17.82,26.31c-.43,0-1,.08-1.63.11A25.11,25.11,0,0,0,6,29.26v8.31H0V3.33H14.2c5,0,8.67.68,11.19,2.09,3.17,1.74,4.78,4.7,4.78,8.78,0,4.87-2.14,8.37-6.36,10.41l6.4,13ZM6,23.52a26.38,26.38,0,0,1,9.58-2.69,18.77,18.77,0,0,0,5.81-1.12C23.11,18.69,24,17,24,14.48c0-2-.66-4.77-6.32-5.36a36.91,36.91,0,0,0-4.11-.23H6Z" style="fill:#231f20"/><polygon points="36.97 37.57 36.97 3.33 62.96 3.33 62.96 8.89 42.92 8.89 42.92 15.97 60.78 15.97 60.78 21.53 42.92 21.53 42.92 32.01 63.42 32.01 63.42 37.57 36.97 37.57" style="fill:#231f20"/><path d="M70.18,37.57V3.33H83.93c4.52,0,8.2,1,10.94,3.11a11.59,11.59,0,0,1,4.57,9.81,13,13,0,0,1-4.77,10.53,17.38,17.38,0,0,1-11.39,3.67H76.14v7.12ZM83.86,24.89a10.15,10.15,0,0,0,6.84-2.14,7.69,7.69,0,0,0,2.53-6.23,6.57,6.57,0,0,0-2.81-5.78,12.27,12.27,0,0,0-7.16-1.85H76.14v16Z" style="fill:#231f20"/><path d="M106.2,37.57V3.33h13.74c4.52,0,8.2,1,10.95,3.11,3,2.28,4.56,5.58,4.56,9.81a13,13,0,0,1-4.76,10.53,17.42,17.42,0,0,1-11.39,3.67h-7.15v7.12Zm13.67-12.68a10.18,10.18,0,0,0,6.85-2.14,7.72,7.72,0,0,0,2.53-6.23,6.57,6.57,0,0,0-2.81-5.78,12.27,12.27,0,0,0-7.16-1.85h-7.13v16Z" style="fill:#231f20"/><rect x="142.22" y="3.33" width="5.95" height="34.24" style="fill:#231f20"/><path d="M193.25,11.74l.56-.77a12.8,12.8,0,0,0,1.84-4.16c.1-.35.17-.66.22-.93a3.16,3.16,0,0,1-1.14-2.46A3.18,3.18,0,0,1,197.06.23,4.14,4.14,0,0,1,198.45,0a3.6,3.6,0,0,1,1.46.3,3.52,3.52,0,0,1,1.18.82,3.41,3.41,0,0,1,1,2.41,7.69,7.69,0,0,1-.28,2.08,14.68,14.68,0,0,1-.67,1.84q-.42.92-.93,1.8a16,16,0,0,1-1.07,1.64,15.23,15.23,0,0,1-2,2.39l-.45.4Z" style="fill:#231f20"/><path d="M154.93,37.58,155.16,18c0-8.09,7-14.67,15.66-14.67s15.67,6.6,15.67,14.7V37.63H180V18c0-4.67-4.13-8.47-9.21-8.47s-9.21,3.8-9.21,8.47l-.22,19.61Z" style="fill:#231f20"/></g></g></svg>