<svg xmlns="http://www.w3.org/2000/svg" viewBox="0 0 201.16 39.47"><g id="Layer_2" data-name="Layer 2"><g id="Layer_1-2" data-name="Layer 1"><path d="M24.59,39.47,18.75,27.62a34.8,34.8,0,0,1-4.52.29h-8V39.47H0v-36H14.91c5.19,0,9.14.74,11.76,2.19,3.32,1.83,5,4.93,5,9.21,0,5.13-2.26,8.8-6.71,10.94l6.72,13.62ZM14.84,22.14c3.44,0,6-.47,7.61-1.39,1.87-1.08,2.79-2.9,2.79-5.55,0-3.36-2.19-5.22-6.69-5.69a38.54,38.54,0,0,0-4.34-.23h-8V22.14Z" style="fill:#231f20"/><polygon points="37.51 39.47 37.51 3.51 64.78 3.51 64.78 9.28 43.68 9.28 43.68 16.82 62.48 16.82 62.48 22.58 43.68 22.58 43.68 33.71 65.27 33.71 65.27 39.47 37.51 39.47" style="fill:#231f20"/><path d="M70.66,39.47v-36H85.08c4.75,0,8.62,1.1,11.5,3.27,3.18,2.38,4.79,5.84,4.79,10.28a13.63,13.63,0,0,1-5,11.06A18.31,18.31,0,0,1,84.4,32H76.83v7.5ZM85,26.21A10.74,10.74,0,0,0,92.24,24a8.17,8.17,0,0,0,2.69-6.6,7,7,0,0,0-3-6.12,13,13,0,0,0-7.57-2H76.83V26.21Z" style="fill:#231f20"/><path d="M106.23,39.47v-36h14.42c4.75,0,8.62,1.1,11.5,3.27,3.18,2.38,4.79,5.84,4.79,10.28a13.63,13.63,0,0,1-5,11.06C128.83,30.68,124.8,32,120,32H112.4v7.5Zm14.35-13.26A10.74,10.74,0,0,0,127.81,24a8.17,8.17,0,0,0,2.69-6.6,7,7,0,0,0-3-6.12,13,13,0,0,0-7.57-2H112.4V26.21Z" style="fill:#231f20"/><rect x="141.8" y="3.51" width="6.18" height="35.96" style="fill:#231f20"/><polygon points="181.86 39.47 160.87 13.76 160.87 39.47 155.18 39.47 155.18 3.51 160.35 3.51 181.17 29.02 181.17 3.51 186.86 3.51 186.86 39.47 181.86 39.47" style="fill:#231f20"/><path d="M191.92,12.3l.56-.77a13.67,13.67,0,0,0,2-4.4,7.94,7.94,0,0,0,.24-1,3.26,3.26,0,0,1-1.21-2.57A3.32,3.32,0,0,1,195.89.24,4.23,4.23,0,0,1,197.33,0a4,4,0,0,1,1.53.31,3.82,3.82,0,0,1,1.22.85,3.54,3.54,0,0,1,1.08,2.51,8.39,8.39,0,0,1-.28,2.18,15,15,0,0,1-.71,1.93,19.91,19.91,0,0,1-1,1.89,19.11,19.11,0,0,1-1.12,1.73,15.82,15.82,0,0,1-2.13,2.5l-.46.4Z" style="fill:#231f20"/></g></g></svg>