<svg width="23" height="23" viewBox="0 0 23 23" fill="none" xmlns="http://www.w3.org/2000/svg">
<path fill-rule="evenodd" clip-rule="evenodd" d="M11.5 0.25C8.76036 0.25 6.53946 2.4709 6.53946 5.21053V5.51316H3.60525L2.86253 6.15892L0.757263 21.1589L1.49998 22.0132H21.5L22.2427 21.1589L20.1374 6.15892L19.3947 5.51316H16.4605V5.21053C16.4605 2.4709 14.2396 0.25 11.5 0.25ZM14.9605 7.01316V10H16.4605V7.01316H18.7426L20.6374 20.5132H2.3626L4.25733 7.01316H6.53946V10H8.03946V7.01316H14.9605ZM14.9605 5.51316V5.21053C14.9605 3.29933 13.4112 1.75 11.5 1.75C9.58879 1.75 8.03946 3.29933 8.03946 5.21053V5.51316H14.9605Z" fill="black"/>
</svg>
