<svg width="20" height="20" viewBox="0 0 20 20" fill="none" xmlns="http://www.w3.org/2000/svg">
<path fill-rule="evenodd" clip-rule="evenodd" d="M13.5 5C13.5 6.933 11.933 8.5 10 8.5C8.067 8.5 6.5 6.933 6.5 5C6.5 3.067 8.067 1.5 10 1.5C11.933 1.5 13.5 3.067 13.5 5ZM15 5C15 7.76142 12.7614 10 10 10C7.23858 10 5 7.76142 5 5C5 2.23858 7.23858 0 10 0C12.7614 0 15 2.23858 15 5ZM1.5 15.8398C1.5 13.9068 3.067 12.3398 5 12.3398H15C16.933 12.3398 18.5 13.9068 18.5 15.8398V18.3398H1.5V15.8398ZM0 15.8398C0 13.0783 2.23858 10.8398 5 10.8398H15C17.7614 10.8398 20 13.0783 20 15.8398V19.8398H0V15.8398Z" fill="black"/>
</svg>
