<svg width="308" height="52" viewBox="0 0 308 52" fill="none" xmlns="http://www.w3.org/2000/svg">
<path d="M38.776 41.416C39.88 44.2 40.888 46.432 41.8 48.112C42.76 49.744 43.696 50.848 44.608 51.424V52H36.76C35.944 51.088 35.176 49.936 34.456 48.544C33.784 47.152 33.04 45.376 32.224 43.216C30.88 39.664 29.512 36.928 28.12 35.008C26.728 33.04 25.024 31.744 23.008 31.12H21.136H7.816V52H0.328V1.6H21.136C28.048 1.6 33.376 2.824 37.12 5.272C40.912 7.672 42.808 11.368 42.808 16.36C42.808 23.8 38.608 28.432 30.208 30.256C32.032 31.168 33.616 32.512 34.96 34.288C36.304 36.016 37.576 38.392 38.776 41.416ZM21.28 27.736C30.688 27.736 35.392 23.944 35.392 16.36C35.392 8.824 30.688 5.056 21.28 5.056H7.816V27.736H21.28ZM55.1324 1.6H97.8284V5.056H62.6204V23.272H93.7244V26.656H62.6204V48.544H97.8284V52H55.1324V1.6ZM109.515 1.6H128.595C135.507 1.6 140.859 2.872 144.651 5.416C148.443 7.96 150.339 11.848 150.339 17.08C150.339 22.264 148.467 26.128 144.723 28.672C140.979 31.216 135.603 32.488 128.595 32.488H117.003V52H109.515V1.6ZM128.739 29.032C138.147 29.032 142.851 25.048 142.851 17.08C142.851 9.064 138.147 5.056 128.739 5.056H117.003V29.032H128.739ZM161.647 1.6H180.727C187.639 1.6 192.991 2.872 196.783 5.416C200.575 7.96 202.471 11.848 202.471 17.08C202.471 22.264 200.599 26.128 196.855 28.672C193.111 31.216 187.735 32.488 180.727 32.488H169.135V52H161.647V1.6ZM180.871 29.032C190.279 29.032 194.983 25.048 194.983 17.08C194.983 9.064 190.279 5.056 180.871 5.056H169.135V29.032H180.871ZM216.732 1.6H224.22V52H216.732V1.6ZM242.147 1.6H249.707L280.379 40.696V1.6H286.715V52H282.971L248.483 8.152V52H242.147V1.6ZM300.438 17.08C301.686 16.072 302.694 14.728 303.462 13.048C304.278 11.32 304.662 9.568 304.614 7.792C304.134 8.08 303.606 8.224 303.03 8.224C301.974 8.224 301.11 7.888 300.438 7.216C299.766 6.544 299.43 5.68 299.43 4.624C299.43 3.52 299.766 2.632 300.438 1.96C301.158 1.24 302.118 0.879997 303.318 0.879997C304.662 0.879997 305.718 1.384 306.486 2.392C307.254 3.352 307.638 4.72 307.638 6.496C307.638 8.752 307.062 10.96 305.91 13.12C304.758 15.28 303.294 16.888 301.518 17.944L300.438 17.08Z" fill="#101010"/>
</svg>
