<svg width="322" height="49" viewBox="0 0 322 49" fill="none" xmlns="http://www.w3.org/2000/svg">
<path d="M4.51562 28.3281V49H0.121094V0.695312H24.168C27.8477 0.695312 31 0.988281 33.625 1.57422C36.25 2.13672 38.3945 3.00391 40.0586 4.17578C41.7461 5.32422 42.9766 6.76563 43.75 8.5C44.5234 10.2344 44.9102 12.2617 44.9102 14.582C44.9102 18.1914 43.9609 21.0859 42.0625 23.2656C40.1641 25.4219 37.1055 26.8984 32.8867 27.6953L49.375 49H43.8555L28.2812 28.1875C27.625 28.2344 26.957 28.2695 26.2773 28.293C25.5977 28.3164 24.8945 28.3281 24.168 28.3281H4.51562ZM40.375 14.582C40.375 12.5195 40.0117 10.8555 39.2852 9.58984C38.5586 8.30078 37.375 7.30469 35.7344 6.60156C34.0938 5.89844 31.9375 5.42969 29.2656 5.19531C26.6172 4.9375 23.3594 4.80859 19.4922 4.80859H4.51562V24.2148H19.3516C23.2188 24.2148 26.4883 24.1094 29.1602 23.8984C31.832 23.6641 34 23.207 35.6641 22.5273C37.3281 21.8242 38.5234 20.8516 39.25 19.6094C40 18.3438 40.375 16.668 40.375 14.582ZM60.0977 49V0.695312H100.352V4.80859H64.8789V21.4375H98.5586V25.5156H64.8789V44.8867H100.879V49H60.0977ZM161.559 15.5312C161.559 17.9453 161.16 20.0781 160.363 21.9297C159.59 23.7812 158.359 25.3398 156.672 26.6055C154.984 27.8711 152.805 28.832 150.133 29.4883C147.484 30.1211 144.285 30.4375 140.535 30.4375H118.844V49H114.449V0.695312H140.535C144.285 0.695312 147.484 1.02344 150.133 1.67969C152.805 2.3125 154.984 3.25 156.672 4.49219C158.359 5.73437 159.59 7.28125 160.363 9.13281C161.16 10.9844 161.559 13.1172 161.559 15.5312ZM157.023 15.5312C157.023 13.2344 156.637 11.3828 155.863 9.97656C155.113 8.57031 153.941 7.49219 152.348 6.74219C150.777 5.96875 148.773 5.45312 146.336 5.19531C143.922 4.9375 141.051 4.80859 137.723 4.80859H118.844V26.3242H137.723C139.012 26.3242 140.383 26.3359 141.836 26.3594C143.312 26.3594 144.766 26.2891 146.195 26.1484C147.625 25.9844 148.984 25.7148 150.273 25.3398C151.586 24.9414 152.734 24.3438 153.719 23.5469C154.727 22.75 155.523 21.707 156.109 20.418C156.719 19.1289 157.023 17.5 157.023 15.5312ZM220.551 15.5312C220.551 17.9453 220.152 20.0781 219.355 21.9297C218.582 23.7812 217.352 25.3398 215.664 26.6055C213.977 27.8711 211.797 28.832 209.125 29.4883C206.477 30.1211 203.277 30.4375 199.527 30.4375H177.836V49H173.441V0.695312H199.527C203.277 0.695312 206.477 1.02344 209.125 1.67969C211.797 2.3125 213.977 3.25 215.664 4.49219C217.352 5.73437 218.582 7.28125 219.355 9.13281C220.152 10.9844 220.551 13.1172 220.551 15.5312ZM216.016 15.5312C216.016 13.2344 215.629 11.3828 214.855 9.97656C214.105 8.57031 212.934 7.49219 211.34 6.74219C209.77 5.96875 207.766 5.45312 205.328 5.19531C202.914 4.9375 200.043 4.80859 196.715 4.80859H177.836V26.3242H196.715C198.004 26.3242 199.375 26.3359 200.828 26.3594C202.305 26.3594 203.758 26.2891 205.188 26.1484C206.617 25.9844 207.977 25.7148 209.266 25.3398C210.578 24.9414 211.727 24.3438 212.711 23.5469C213.719 22.75 214.516 21.707 215.102 20.418C215.711 19.1289 216.016 17.5 216.016 15.5312ZM232.434 49V0.695312H236.828V49H232.434ZM299.477 49L257.5 6.46094V49H253.105V0.695312H257.957L299.934 43.375V0.695312H304.258V49H299.477ZM318.109 13.3516H314.559L316.949 0.695312H321.977L318.109 13.3516Z" fill="#101010"/>
</svg>
