<svg width="20" height="20" viewBox="0 0 20 20" fill="none" xmlns="http://www.w3.org/2000/svg">
<path fill-rule="evenodd" clip-rule="evenodd" d="M1.48896 8.96142C1.48896 4.83704 4.82211 1.49357 8.93376 1.49357C13.0454 1.49357 16.3786 4.83704 16.3786 8.96142C16.3786 13.0858 13.0454 16.4293 8.93376 16.4293C4.82211 16.4293 1.48896 13.0858 1.48896 8.96142ZM8.93376 0C3.99978 0 0 4.01217 0 8.96142C0 13.9107 3.99978 17.9228 8.93376 17.9228C11.1418 17.9228 13.1627 17.1194 14.7218 15.788L18.9208 20L20 18.9175L15.7957 14.7002C17.0892 13.1456 17.8675 11.1447 17.8675 8.96142C17.8675 4.01217 13.8677 0 8.93376 0Z" fill="black"/>
</svg>
