<svg width="22" height="22" viewBox="0 0 22 22" fill="none" xmlns="http://www.w3.org/2000/svg">
<path fill-rule="evenodd" clip-rule="evenodd" d="M11 3.09433L8.86208 8.66834L8.16182 9.14975H2.86187L6.92761 13.0597L7.13588 13.78L5.76509 19.3325L10.5903 16.1861H11.4096L16.2348 19.3325L14.8641 13.78L15.0723 13.0597L19.1381 9.14975H13.8381L13.1379 8.66834L11 3.09433ZM10.2997 0.731415L11.7002 0.731415L14.3537 7.64975H21L21.5198 8.94034L16.4241 13.8408L18.1472 20.8202L17.0094 21.6282L11 17.7097L4.99055 21.6282L3.85276 20.8202L5.57584 13.8408L0.480103 8.94034L0.999971 7.64975H7.6462L10.2997 0.731415Z" fill="black"/>
</svg>
